<svg xmlns="http://www.w3.org/2000/svg" width="960.000000pt" height="960.000000pt" version="1.0" viewBox="0 0 960.000000 960.000000"><path d="M675 107c-8.9 4.8-28.6 21.8-113.4 97.8-43.9 39.5-56.4 50.2-58.5 50.2-5.9 0-55.3 3.1-63.6 4-21.7 2.4-47.1 7.6-66 13.7-34.4 11-63.2 26.4-99.5 53.3-8 5.9-15.7 11.5-17.1 12.4-2.9 1.8-.8 2.7-56.9-24.6-11.8-5.8-36.6-17.8-55-26.8-18.4-8.9-58-28.4-87.9-43.1-38.5-19-54.8-26.6-55.5-25.9-.6.6-1.2 6.6-1.4 13.8l-.3 12.7 87.8 42.9c198.4 97 205.8 100.6 222.8 106.5 10.7 3.8 15.3 4 18.9.6 7.9-7.3-.5-16.6-28.5-31.5-7.5-4-14.7-8.1-16-9.1l-2.4-1.9 2.9-2.5c6.6-5.3 35.2-17.8 52.6-22.8 4.7-1.4 12.6-3 17.5-3.6 9.6-1.1 70.1-3.5 74.8-2.9 2.6.3 1.3 1.7-17.5 18.4C358.5 387 292 450.4 292 453.7c0 2.4 9.6 13.5 23.7 27.5l14.8 14.8 20-27.1c31.3-42.5 48.5-68.6 48.5-73.7 0-2.9 7.5-12.3 18.2-22.9 13.7-13.5 56.1-51.3 57.5-51.3.7 0 11 2.4 23 5.4s26.8 6.2 32.8 7.2c14.5 2.3 36.5 2.4 45.8.1 11.3-2.8 22.4-9.3 25.3-14.8 2.9-5.7.8-17.5-5.1-27.4-7.1-12.2-32.1-27.4-45.1-27.5-2.2 0-4.8-.6-5.8-1.3-2.7-2-1.2-4.3 11.3-17.2 9.9-10.3 11.6-12.8 17-24.5 2.6-5.6 34.7-37 75.9-73.9 21-18.9 38.2-34.8 38.2-35.2s-1.2-2.1-2.6-3.8c-3-3.6-5.4-3.8-10.4-1.1"/><path d="M671 193.5c-3.6.8-10.5 3.5-15.5 6-25.4 12.7-37.5 31.1-39.2 59.4-2 32.7 15.4 59.7 45.8 71.3 8.1 3.1 8.9 3.3 23.4 3.3 13.7 0 15.6-.3 22.6-2.7 11.4-4 19.5-9.2 28.4-18.2 12.6-12.6 18-25.4 19.2-45.1 2-33.2-18.4-62.6-50.2-72.5-9.1-2.8-25.4-3.6-34.5-1.5M417 450.3c-18.7 6.7-28.8 18-34 38.1-1 4.2-3.1 16-4.5 26.2-7 50.4-23.7 88.8-55.1 126.9-24.5 29.7-54 52.8-92 71.8-37.5 18.8-51.2 22.1-75.4 18.2-15.5-2.6-28.3-6.1-140.5-38.5-7.2-2.1-13.1-3.7-13.2-3.6-.7.6-2.4 21.1-1.9 23 .3 1.3 1.4 2.6 2.3 2.9 1 .2 11.7 3.4 23.8 7 22 6.5 71.5 20.6 245 69.5 185 52.3 189.4 53.5 185.5 54.4-1.9.4-57.8 1-124.2 1.4l-120.8.7V872h54.3c29.8 0 188.7-.5 353.1-1l299-1 10.3-6.6c6.5-4.1 12.3-8.8 15.8-12.7 6-6.6 11.9-17.3 11.3-20.4-.4-2.4-10.4-8.3-14.1-8.3-3.8 0-5.6 1.1-14.1 8.2-3.9 3.3-10.8 7.8-15.4 10-10.6 5.1-13 5.3-83.2 6.9-59.6 1.3-220.9.7-227.8-.9-6.2-1.4-6.8-2.3-4.8-7.2 3.4-8.6 1.1-21.3-4.1-22.6-2-.5-4.3.6-11.2 5.5-15 10.7-29.3 16.3-45.1 17.7-8.3.8-12.4-.6-11.4-3.9 1.2-4.1 9.1-15.1 22.5-31.2 27.8-33.6 40.3-52.2 54.5-81 16.4-33.5 19.6-45.8 19.6-76.5 0-15.3-.5-22.1-2.1-31.4-6.1-34.6-22.1-63.2-56.4-100.8-27.4-30-49-46.2-65.4-48.9-6.1-1.1-7.6-1-15.3 1.1-14.5 3.9-15 3.9-19.4-1.5-5.2-6.2-12.7-11.1-22.8-14.6-10-3.5-14.3-3.6-22.8-.6m72 117.4c35.2 35.4 48.3 53.9 54.7 77.5 2.5 9 2.5 36.6-.1 50.3-3.5 19.2-11.1 40.8-25 71.7-6.5 14.5-27.4 58.9-27.9 59.5-.5.5-33.7-8.5-94.2-25.5-31.3-8.9-83.6-23.5-116.1-32.6-32.6-9.1-60.2-17-61.5-17.5-2.3-.8-2.2-.9 1.6-1.9 2.2-.6 11.9-3.2 21.5-5.7 32.3-8.5 55-17.1 82.5-30.9 37-18.7 60.1-35.7 82.1-60.4 21.2-23.8 40.4-54.3 50.9-81.2 5.5-14.2 9.7-23 10.8-23 .6 0 9.9 8.9 20.7 19.7"/></svg>