<svg xmlns="http://www.w3.org/2000/svg" width="960.000000pt" height="960.000000pt" version="1.0" viewBox="0 0 960.000000 960.000000"><path d="M88.5 173.9c-9.6 2.7-13.9 4.6-21.7 9.8-9.8 6.5-18.2 16.1-23.3 26.8-5.6 11.8-7 17.8-6.9 30.5.1 20.4 6.9 35.7 22.1 50 12.6 12 28.2 18 46.3 18 19.5 0 34-6 48.1-20 7.4-7.3 9.3-9.9 13.2-18 2.5-5.2 5.1-12 5.8-15 1.9-7.8 1.6-24.1-.4-32-5.9-22.5-22.7-40.7-44.6-48.3-11.5-4-27.9-4.7-38.6-1.8M249.5 222c-16.2 1.9-28.6 8-40.5 20-13.9 13.8-20 28.4-20.1 47.5 0 10.8.9 16.1 4.2 25.1 7.4 19.6 22.9 34.3 43.4 41.1 7 2.3 9.7 2.7 21 2.7 11.7 0 13.8-.3 21-2.8C323.4 340 340 288 312.4 249.4c-13.6-19.2-39.1-30.3-62.9-27.4M392.3 273c-24.7 6.5-44.2 26.2-49.8 50.4-2 8.7-2 23.5 0 32.2 7.1 30.6 35 52.4 67 52.4 30.5 0 56.5-19.4 65.7-49 3.3-10.7 3.3-28.3 0-39-7.3-23.4-25.6-41.1-48.8-47-10.1-2.6-24.2-2.6-34.1 0"/><path d="M0 410.3v97.2l48.3 15.7C74.8 531.8 180 565.9 282 599s207.6 67.3 234.5 76.1c124.9 40.8 269.3 87.2 277.9 89.4 22.6 5.7 45.7 6.8 62.6 3 29.7-6.7 51.2-30.5 55-61 3.3-26.4-9.3-57.8-37-92.5-20.7-25.8-73.7-75.4-108-101.1-23.2-17.4-49.1-33.6-75.4-47.4l-14.2-7.5-4.4 4.6c-10.8 10.9-33.1 23.9-49.5 28.9-18.4 5.6-40.2 7-58.6 3.9-5.2-.9-18.2-4.5-28.9-7.9-10.7-3.5-129.7-42.2-264.5-86-134.7-43.8-251-81.6-258.2-84L0 313.1z"/><path d="M551.2 321.1c-18.5 2.8-36.3 14.2-46.8 30.1-13.7 20.5-15.1 46.9-3.7 69.8 2.8 5.5 6 9.7 12.3 16.1 7.1 7.2 10.1 9.3 18 13.2 21.4 10.5 44.6 9.9 65-1.5 8.3-4.7 21.8-18.8 26.3-27.5 7.3-14.1 9.7-33 6.2-48.3-4.4-18.4-18.7-36.6-35.5-44.8-4.7-2.3-11.1-4.8-14.2-5.6-7.8-2-20-2.6-27.6-1.5M0 551.5v11.4l41.8 13.6c22.9 7.5 48.5 15.8 56.7 18.6 8.3 2.7 16 4.9 17.3 4.9 3.9 0 7.8-2.7 9.7-6.6 1.4-3 1.5-4.3.6-7.4-.6-2-2-4.5-3-5.4C121.4 579.1 3.9 540 1 540c-.6 0-1 4.5-1 11.5M509.3 708.9c-4 2.5-5.3 4.9-5.3 9.8 0 8.5-11.1 4.3 157 58.9 97.2 31.5 155.8 50 161.5 51 13.1 2.4 33.8 1.4 46.3-2 13.5-3.8 23.7-8.7 25.6-12.4 2.5-4.9 2-8.8-1.7-12.8-4.3-4.7-7.7-4.8-19.2-.1-18.7 7.5-37.7 8.5-57 2.9-8.5-2.5-82.2-26.3-263.8-85.4-18.6-6-35.3-11.2-37-11.4-2.1-.3-4.3.2-6.4 1.5"/></svg>