<svg xmlns="http://www.w3.org/2000/svg" width="960.000000pt" height="960.000000pt" version="1.0" viewBox="0 0 960.000000 960.000000"><path d="M54.3 314.8c1.5 1.5 4.4 3.4 6.4 4.1 7.4 2.6 44.6 17.6 94.8 38.3 119.4 49.3 174.5 69.2 240.6 87.3 10.9 2.9 20.8 6 22 6.8 1.3.9 15.2 6.7 30.9 13s40 16.2 54 22c54 22.3 85.5 34.4 117 45 51.1 17.2 80.3 23.9 98.4 22.4 17.4-1.5 28.7-13.9 27.4-30.1-.9-10.5-5.6-17-17.3-24.1-12-7.2-15.5-7.9-119.2-24-84.3-13-138.3-20.8-163.8-23.5-5.5-.6-10.4-1.5-11-2.1-.7-.7-.2-.8 1.7-.4 1.6.4 7.9.8 14 .9 10.1.1 11.8-.2 16.1-2.3 7-3.5 13.4-10.1 17-17.9 2.6-5.6 3.1-7.9 3.2-14.2 0-9.1-2.2-14.4-9.3-21.4-13.2-13.3-34.1-20.1-87.7-28.5-10.4-1.7-50-8.2-88-14.5-109.3-18.2-147.9-24.5-184.6-30.1-36.4-5.6-63-9.5-64.2-9.5-.6 0 .1 1.3 1.6 2.8M268.8 417.9c-4.7 3-8.8 9.5-8.8 13.9 0 5.7 5.6 12.9 11.9 15.4 3.8 1.5 243.3 91.5 372.1 139.8 61.3 23 113.5 42.1 116 42.5 6.8 1 12.5-1.6 16.1-7.4 1.6-2.4 2.9-5.9 2.9-7.6 0-4-3.8-11.4-7-13.7-1.4-.9-48.2-18.9-104-39.9C246.3 402.6 279.6 415 275.4 415c-1.1 0-4.1 1.3-6.6 2.9M262.6 458.2c-4.3 10.3-6.6 16.2-6.3 16.4.2.2 96 36.8 172.7 65.9 156.4 59.4 240.6 91.5 262.5 100 19.7 7.7 30.6 8.7 52.4 4.5 2.9-.5 5.5-1 5.6-1 .2 0 1.3-2.5 2.5-5.5l2.3-5.6-2.3-2.4c-1.3-1.4-4.2-3.2-6.6-4.1-3.6-1.4-5.1-1.5-8.8-.5-5.8 1.4-16.4 1.4-22.4 0-4.1-1-103.2-38.6-381.2-144.4-37.1-14.1-67.8-25.9-68.3-26.2-.4-.2-1.4 1.1-2.1 2.9M822.5 483.4c-33.2 6.5-58.4 35.7-58.5 67.7 0 20.2 11.1 42.5 27.4 54.7 12.9 9.8 27.4 14.6 43.6 14.6 28.6-.1 51.9-15 64-40.9 9.4-20.1 9.1-37.6-1.1-58.5-3.4-7-5.8-10.1-13.3-17.5-7.4-7.4-10.7-9.9-17.6-13.2-14.4-7-30.8-9.5-44.5-6.9"/></svg>