<svg xmlns="http://www.w3.org/2000/svg" width="900.000000pt" height="900.000000pt" version="1.0" viewBox="0 0 900.000000 900.000000"><path d="M700 99.6c-20.4 4.8-36.9 17.8-45.4 35.9-1 2.2-2.3 4.8-2.8 5.8-3.4 6.9-4.6 24.9-2.3 34.8 7.5 33 39.4 55.6 71.8 51 24.7-3.6 43.6-19.1 53-43.6 6.5-17 3.5-38.8-7.8-56.5-4-6.3-7-9.4-15-15.3-9.7-7.2-16.3-10.2-27-12.3-8.4-1.7-17-1.6-24.5.2M606 198.9c-4.9.8-7.2 1.7-17 6.4-6.9 3.4-9.7 6-44.5 41.7-36.1 37.1-46.1 47.7-59.9 64-8.9 10.5-27.1 31.6-27.7 32-.3.3-3.9 4.3-7.8 8.9-4 4.6-7.7 8.9-8.4 9.6s-5 5.4-9.7 10.6c-4.7 5.1-11.8 12.9-15.7 17.2-6.5 6.9-8.4 9.7-6.8 9.7.7 0 12.4-5.8 16-7.9 1.7-1 6.2-3.5 10-5.6 5.4-2.9 30.8-18.1 49.9-29.8 1.1-.7 4.7-3 8.1-5.3 3.3-2.2 6.7-4.3 7.5-4.7s2.7-1.5 4.2-2.5c1.5-.9 5.9-3.7 9.8-6.2s8.2-5.2 9.5-6 6.7-4.2 12-7.5 10.8-6.8 12.3-7.7c1.5-1 3.6-2.2 4.7-2.8 6.4-3.4 13.7-8.5 33-22.9 32.3-24.2 45.5-37 52.7-51.2 2.9-5.6 3.3-7.3 3.2-13.9-.1-10.8-4.3-17.8-14.6-23.9-4.1-2.4-13.5-3.4-20.8-2.2M843.9 339.3c-2.4 1.9-3.9 5.3-4.9 11.1-1.9 12.1-8.6 20.3-23.2 29.1-4.3 2.6-20.9 11.5-37.8 20.3-11.6 6-24.3 12.7-37.5 19.7-6 3.2-15 7.9-20 10.5-4.9 2.6-13.9 7.3-20 10.5-18.5 9.8-28.5 15.1-40 21-6 3.1-15 7.9-20 10.5-4.9 2.6-13.9 7.4-20 10.6-6 3.1-15 7.9-20 10.5-4.9 2.6-12.6 6.6-17 8.9s-12 6.3-17 8.9c-4.9 2.6-13.9 7.4-20 10.5-6 3.2-16.4 8.7-23 12.2-6.6 3.4-15.6 8.2-20 10.4-4.4 2.3-13.4 7-20 10.6-6.6 3.5-15.6 8.2-20 10.5-7.9 4-15.5 8-37 19.4-17.7 9.4-28.5 15-37 19.5-4.4 2.2-13.4 7-20 10.5s-16.9 8.9-23 12c-6 3.1-13.9 7.3-17.5 9.2-8 4.3-41.2 21.8-60 31.5-4.7 2.5-13 6.8-18.5 9.8-5.5 2.9-15.4 8.1-22 11.5-6.6 3.5-15.6 8.2-20 10.5-8.2 4.4-26.4 13.9-41.5 21.8-4.7 2.4-12.5 6.5-17.5 9.1-22.3 11.7-35.8 18.8-46 24.1-6 3.1-15.5 8.1-21 11-10.5 5.6-29.6 15.6-40.2 21-3.4 1.7-6.4 3.7-6.6 4.4-.8 2.1 6.3 15.6 8.2 15.6.9 0 4.1-1.3 7.1-3 3-1.6 9.1-4.8 13.5-7 4.4-2.3 13.4-7 20-10.5s15.6-8.3 20-10.5c4.4-2.3 13.4-7 20-10.5s15.6-8.3 20-10.5c4.4-2.3 13.3-7 19.7-10.3 6.5-3.4 16.8-8.9 23-12.1 6.2-3.3 15.4-8.1 20.3-10.7 5-2.6 14-7.3 20-10.4 6.1-3.1 15.1-7.9 20-10.5 5-2.7 12.6-6.7 17-9 4.4-2.2 13.4-7 20-10.5s15.8-8.3 20.5-10.7c4.7-2.5 14.8-7.8 22.5-11.8 23.1-12.2 31.6-16.6 40.5-21.2 15-7.9 33.3-17.4 41.5-21.8 4.4-2.3 14.1-7.4 21.5-11.3s17.6-9.2 22.5-11.8c5-2.6 12.6-6.6 17-8.9 4.4-2.2 13.4-7 20-10.4 11.3-6 22.6-11.9 42.5-22.4 11.5-6 23.7-12.4 40.5-21.2 19.1-10.1 30.4-16 40.5-21.2 8.2-4.3 27-14.2 45.5-23.9 5-2.6 12.6-6.6 17-8.9s13.4-7 20-10.5 15.6-8.3 20-10.5c4.4-2.3 13.4-7 20-10.5s15.6-8.2 20-10.5c4.4-2.2 13.4-7 20-10.4 6.6-3.5 16.3-8.6 21.5-11.3 22.7-11.9 27.6-14.7 33.4-19.1 18.5-14 26-26.1 26-41.8 0-10.1-1.4-12.4-7.8-12.4-2.3 0-4.8.6-5.7 1.3M489.5 363.5c-11.7 3.1-22 8.4-34.4 17.8-9.6 7.1-24.7 21.5-31.3 29.7-1.9 2.5-7.1 8.8-11.4 14-4.4 5.3-9.7 11.8-11.9 14.5-2.2 2.8-4.7 5.9-5.7 7-8 9.8-18 21.9-21.3 26-2.2 2.8-4.7 5.9-5.7 7-13 15.8-17.9 21.7-20.8 25.5-1.9 2.5-4.4 5.6-5.6 7-9 10.3-20.8 25.3-36.4 46-9.9 13.2-18.8 24.9-19.6 25.8-.7.9-2.4 3.1-3.6 4.8-4.4 6.1-11.2 14.9-12.5 16.2-.7.8-2.7 3.5-4.5 6-1.8 2.6-3.8 5.3-4.5 6-.7.8-2.7 3.5-4.5 6-1.7 2.6-3.4 4.9-3.8 5.2-.6.5-11.2 14.7-19 25.5-2 2.7-4.8 6.7-6.3 8.7s-2.7 3.9-2.7 4.2c0 1 2 .7 3.3-.4.7-.6 16.7-12.7 35.7-27s40.6-30.7 48-36.5 19.6-15.2 27-21c7.4-5.7 27-20.7 43.5-33.2 24.2-18.3 52.8-41.1 55.5-44.2.3-.3 4.6-4.2 9.5-8.5 12.9-11.5 60.8-59.2 65.2-65.1 13.8-18.5 17.6-26.1 18.1-37 .5-8.6-.4-11.3-6-18.7-5.5-7.1-17.5-13-26.1-12.7-1.7.1-5.4.7-8.2 1.4"/></svg>